<?xml version="1.0" encoding="UTF-8" standalone="no"?>
<svg
   xmlns:dc="http://purl.org/dc/elements/1.1/"
   xmlns:cc="http://creativecommons.org/ns#"
   xmlns:rdf="http://www.w3.org/1999/02/22-rdf-syntax-ns#"
   xmlns:svg="http://www.w3.org/2000/svg"
   xmlns="http://www.w3.org/2000/svg"
   style="fill-rule:evenodd"
   id="svg3733"
   version="1.1"
   viewBox="0 0 62 60"
   height="60"
   width="62">
  <metadata
     id="metadata3739">
    <rdf:RDF>
      <cc:Work
         rdf:about="">
        <dc:format>image/svg+xml</dc:format>
        <dc:type
           rdf:resource="http://purl.org/dc/dcmitype/StillImage" />
        <dc:title></dc:title>
      </cc:Work>
    </rdf:RDF>
  </metadata>
  <defs
     id="defs3737" />
  <g
     style="fill:#000000"
     transform="translate(0,-781.89)"
     id="g3731">
    <path
       id="path3727"
       d="m 57.4303,789.519 c -3.2372,-4.92 -7.3726,-7.63 -11.6445,-7.63 -4.2721,0 -8.4075,2.71 -11.6445,7.63 -1.305,1.983 -2.8351,6.49 -3.1417,6.49 -0.3244,0 -1.837,-4.507 -3.1421,-6.49 -3.237,-4.92 -7.3721,-7.63 -11.6445,-7.63 -4.2721,0 -8.4075,2.71 -11.6441,7.63 -2.8608,4.348 -4.5688,9.832 -4.5688,14.669 0,4.445 1.4654,7.334 4.4802,8.833 2.7784,1.381 6.4979,1.383 10.7158,1.374 0.6726,-10e-4 1.3624,-10e-4 2.0342,0 0.332,10e-4 0.6611,0.002 0.987,0.002 3.8085,0 7.1693,-0.104 9.7287,-1.377 1.3071,-0.649 2.616,-2.746 3.0536,-2.746 0.4328,0 1.7468,2.097 3.0536,2.747 2.7778,1.381 6.4982,1.383 10.7158,1.374 0.6726,-10e-4 1.3621,-10e-4 2.0343,0 0.3319,10e-4 0.661,0.002 0.987,0.002 3.8081,0 7.1689,-0.104 9.7286,-1.377 3.0151,-1.498 4.4808,-4.387 4.4808,-8.832 -5e-4,-4.837 -1.7084,-10.321 -4.5694,-14.669 z m -39.2131,21.997 c -0.3235,0 -0.6508,-10e-4 -0.9808,-10e-4 -0.3379,0 -0.6791,-10e-4 -1.0234,-10e-4 -0.3435,0 -0.6849,10e-4 -1.0233,10e-4 -0.3299,0 -0.6572,10e-4 -0.9804,10e-4 -7.8952,0 -11.3554,-0.693 -11.3554,-7.328 0,-4.293 1.5299,-9.182 4.0928,-13.077 2.652,-4.03 6.0293,-6.342 9.2662,-6.342 3.2373,0 6.6146,2.312 9.2664,6.342 1.4658,2.228 2.5926,4.78 3.2894,7.36 0.042,0.155 0.1402,0.467 -0.1877,0.467 h -4.5415 c 0,0 -0.3621,-0.031 -0.3621,-0.54 0,-0.197 0,-0.79 0,-0.79 0,-1.111 -0.8955,-2.014 -1.9963,-2.014 h -9.1278 c -1.1007,0 -1.9964,0.903 -1.9964,2.014 v 5.696 c 0,1.111 0.8955,2.015 1.9964,2.015 h 9.1278 c 1.1007,0 1.9963,-0.904 1.9963,-2.015 0,0 0,-0.816 0,-1.088 0,-0.388 0.4379,-0.398 0.4379,-0.398 h 5.0463 c 0.2649,0 0.2839,0.173 0.2933,0.259 0.0772,0.715 0.1174,1.421 0.1174,2.111 0,6.635 -3.46,7.328 -11.3551,7.328 z m 29.5727,0 c -0.3237,0 -0.651,-10e-4 -0.9809,-10e-4 -0.3379,0 -0.6791,-10e-4 -1.0231,-10e-4 -0.3439,0 -0.6852,10e-4 -1.0233,10e-4 -0.3303,0 -0.6572,10e-4 -0.9808,10e-4 -7.895,0 -11.355,-0.693 -11.355,-7.328 0,-0.715 0.0429,-1.446 0.1256,-2.187 0.0069,-0.062 0.0404,-0.184 0.2297,-0.184 h 5.0081 c 0,0 0.5311,0.043 0.5311,0.475 0,0.254 0,1.012 0,1.012 0,1.111 0.8955,2.014 1.9964,2.014 h 9.1281 c 1.1006,0 1.996,-0.903 1.996,-2.014 v -5.696 c 0,-1.111 -0.8952,-2.014 -1.996,-2.014 h -9.1281 c -1.1007,0 -1.9964,0.903 -1.9964,2.014 0,0 0,0.669 0,0.891 0,0.433 -0.4301,0.439 -0.4301,0.439 h -4.5289 c -0.2081,0 -0.2062,-0.188 -0.1815,-0.283 0.6924,-2.642 1.8384,-5.263 3.3387,-7.544 2.6519,-4.03 6.0295,-6.342 9.2664,-6.342 3.2371,0 6.6144,2.312 9.2662,6.342 2.5629,3.895 4.0929,8.784 4.0929,13.077 -1e-4,6.635 -3.4603,7.328 -11.3551,7.328 z"
       style="fill:#000000;stroke:none" />
    <path
       id="path3729"
       d="m 51.5008,817.36 c -2.1995,-1.093 -5.0896,-1.096 -8.3724,-1.089 -0.5157,0.001 -1.0449,0.001 -1.5601,0 -3.2779,-0.008 -6.1719,-0.004 -8.3717,1.089 -0.9036,0.449 -1.8402,1.81 -2.1971,1.81 -0.3623,0 -1.2935,-1.361 -2.1972,-1.81 -2.1994,-1.093 -5.0902,-1.097 -8.3721,-1.089 -0.5162,0.001 -1.0451,0.001 -1.5603,0 -3.2779,-0.008 -6.1719,-0.004 -8.3717,1.089 -2.4386,1.212 -3.6242,3.528 -3.6242,7.08 0,3.776 1.3316,8.054 3.562,11.444 2.5481,3.873 5.8202,6.006 9.2138,6.006 3.394,0 6.6664,-2.133 9.2144,-6.006 0.8507,-1.293 1.7728,-4.191 2.1348,-4.191 0.3193,0 1.2843,2.898 2.1353,4.191 2.548,3.873 5.8201,6.006 9.2137,6.006 3.3936,0 6.6661,-2.133 9.2143,-6.006 2.2301,-3.39 3.5619,-7.668 3.5619,-11.444 6e-4,-3.552 -1.1847,-5.868 -3.6234,-7.08 z m -22.2825,8.564 h -3.0844 c 0,0 -0.4426,0.035 -0.4426,-0.404 0,-0.083 0,-0.33 0,-0.33 0,-1.025 -0.827,-1.86 -1.8438,-1.86 h -7.0061 c -1.0164,0 -1.8437,0.835 -1.8437,1.86 v 4.372 c 0,1.026 0.8273,1.861 1.8437,1.861 h 7.0061 c 1.0168,0 1.8438,-0.835 1.8438,-1.861 0,0 0,-0.311 0,-0.415 0,-0.331 0.3858,-0.343 0.3858,-0.343 h 2.6302 c 0.2272,0 0.189,0.167 0.165,0.251 -1.4937,5.143 -5.1869,9.955 -9.222,9.955 -5.2501,0 -9.9216,-8.148 -9.9216,-14.57 0,-4.812 2.4261,-5.29 8.3832,-5.29 0.2485,0 0.4992,0 0.7523,0 0.5195,0.002 1.0526,0.002 1.5724,0 0.2534,0 0.5041,0 0.7522,0 5.9576,0 8.3839,0.478 8.3839,5.29 0,0.35 -0.014,0.705 -0.0412,1.063 -0.0109,0.14 0.0085,0.421 -0.3132,0.421 z m 13.1302,13.086 c -4.0436,0 -7.7437,-4.833 -9.2311,-9.988 -0.0209,-0.072 -0.0326,-0.217 0.1818,-0.217 h 2.6619 c 0,0 0.3466,-0.078 0.3466,0.304 0,0.113 0,0.454 0,0.454 0,1.026 0.8273,1.86 1.8439,1.86 h 7.0061 c 1.0164,0 1.8437,-0.834 1.8437,-1.86 v -4.373 c 0,-1.025 -0.8273,-1.859 -1.8437,-1.859 h -7.0061 c -1.0166,0 -1.8439,0.834 -1.8439,1.859 0,0 0,0.257 0,0.343 0,0.356 -0.3844,0.391 -0.3844,0.391 h -3.0908 c -0.3595,0 -0.3483,-0.22 -0.3571,-0.33 -0.0319,-0.389 -0.0484,-0.775 -0.0484,-1.154 0,-4.812 2.4258,-5.291 8.3836,-5.291 0.2481,0 0.4987,10e-4 0.7519,10e-4 0.5196,0.002 1.0525,0.002 1.5724,0 0.253,0 0.504,-10e-4 0.7522,-10e-4 5.9574,0 8.3839,0.479 8.3839,5.291 -3e-4,6.422 -4.6721,14.57 -9.9225,14.57 z"
       style="fill:#000000;stroke:none" />
  </g>
</svg>
