<?xml version="1.0" encoding="UTF-8" standalone="yes"?>
<!-- Created with sK1/UniConvertor (http://sk1project.org/) -->
<svg xmlns="http://www.w3.org/2000/svg" xmlns:xlink="http://www.w3.org/1999/xlink"
  width="595.276pt" height="841.89pt" viewBox="0 0 595.276 841.89"
  fill-rule="evenodd">
<g>
<path style="stroke:none; fill:none" d="M 57.2298 787.535C 54.0283 783.905 49.6025 781.903 44.8068 781.903C 41.0569 781.903 36.9882 784.176 34.0164 785.829C 32.8557 786.475 31.4273 787.276 30.9808 787.328C 30.5344 787.276 29.1058 786.475 27.9452 785.829C 24.9862 784.176 20.9302 781.89 17.1549 781.89C 12.3463 781.89 7.9332 783.892 4.7319 787.522C 1.6835 790.983 0 795.53 0 800.348C 0 807.233 2.4361 817.037 6.543 826.57C 8.3541 830.819 10.3056 834.475 12.1551 837.162C 14.3361 840.339 16.211 841.89 17.8691 841.89C 18.5961 841.89 19.9226 841.58 20.6751 839.461C 21.4276 837.381 22.0908 834.966 22.8052 832.434C 24.6928 825.666 27.0396 817.27 30.8916 817.27L 31.1338 817.27C 32.843 817.27 34.3607 818.742 35.802 821.765C 37.205 824.749 38.2764 828.675 39.2968 832.499C 39.9855 835.018 40.6233 837.407 41.3375 839.461C 42.0645 841.566 43.391 841.863 44.1181 841.863C 45.7634 841.863 47.6383 840.287 49.8193 837.059C 51.6688 834.346 53.5947 830.639 55.4314 826.363C 59.5511 816.766 61.9999 807.026 61.9999 800.348C 61.9744 795.543 60.278 790.996 57.2298 787.535zM 53.212 825.42C 51.4647 829.502 49.5515 833.157 47.8169 835.715C 45.8016 838.686 44.5262 839.422 44.0797 839.461C 43.7991 839.487 43.7099 839.138 43.544 838.66C 42.8553 836.697 42.2176 834.359 41.5415 831.879C 40.4958 827.952 39.3861 823.909 37.8937 820.731C 36.0317 816.779 33.8123 814.867 31.0828 814.867L 30.8405 814.867C 28.2131 814.867 26.0321 816.766 24.1954 820.693C 22.7031 823.844 21.5679 827.887 20.471 831.788C 19.7695 834.294 19.119 836.658 18.392 838.66C 18.2517 839.048 18.0604 839.358 17.8309 839.5C 17.5247 839.668 16.5553 839.397 14.081 835.805C 12.3463 833.274 10.4332 829.657 8.6985 825.627C 7.895 823.754 7.1553 821.881 6.492 819.995C 8.8643 818.045 18.2517 811.134 31.0828 811.134C 38.8377 811.134 45.2787 813.666 49.3219 815.797C 52.2045 817.308 54.3089 818.859 55.4314 819.737C 54.7681 821.61 54.0156 823.521 53.212 825.42zM 50.8396 813.084C 46.4904 810.772 39.5392 808.021 31.1083 808.021C 22.7413 808.021 15.7901 810.772 11.4407 813.084C 8.7879 814.492 6.7599 815.9 5.4716 816.882C 3.5075 810.669 2.3723 804.779 2.3723 800.361C 2.3723 792.469 7.9077 784.305 17.1421 784.305C 19.8716 784.305 23.124 785.674 25.5856 787.263C 26.1851 787.651 27.1162 788.4 27.8432 788.956C 28.5702 789.511 29.4758 790.156 30.4962 790.764C 30.9935 791.074 31.5292 791.384 32.116 791.629C 38.2891 794.29 43.7609 792.843 43.6079 792.572C 43.4676 792.327 39.7177 792.314 36.1209 791.358C 34.195 790.854 32.4348 789.834 32.5241 789.524C 32.6006 789.265 33.8378 788.658 35.1643 787.935C 37.9066 786.411 41.6564 784.305 44.7941 784.305C 54.0538 784.305 59.5638 792.469 59.5638 800.361C 59.5638 804.636 58.4414 810.462 56.4645 816.636C 55.189 815.681 53.2886 814.376 50.8396 813.084zM 18.7364 825.614C 17.2313 827.525 15.1396 828.391 14.0682 827.525C 12.9968 826.66 13.3412 824.413 14.8463 822.488C 16.3513 820.576 18.443 819.711 19.5144 820.576C 20.5858 821.442 20.2415 823.702 18.7364 825.614zM 48.021 822.979C 49.0285 825.188 48.85 827.461 47.6001 828.042C 46.3501 828.624 44.5262 827.306 43.5185 825.071C 42.511 822.863 42.6895 820.589 43.9394 820.008C 45.1895 819.452 47.0133 820.77 48.021 822.979z"/>
</g>
</svg>