<?xml version="1.0" encoding="UTF-8" standalone="yes"?>
<!-- Created with sK1/UniConvertor (http://sk1project.org/) -->
<svg xmlns="http://www.w3.org/2000/svg" xmlns:xlink="http://www.w3.org/1999/xlink"
  width="595.276pt" height="841.89pt" viewBox="0 0 595.276 841.89"
  fill-rule="evenodd">
<g>
<path style="stroke:none; fill:none" d="M 57.4561 831.873L 41.5221 815.735C 41.1713 815.38 40.7046 815.184 40.2081 815.184C 39.7115 815.184 39.2448 815.38 38.8938 815.735L 38.152 816.486C 38.152 816.486 37.9214 816.74 37.6938 816.51C 36.9805 815.787 35.1152 813.898 35.1152 813.898C 34.8829 813.663 35.0291 813.37 35.1212 813.244C 37.5688 809.884 38.8914 805.837 38.8914 801.584C 38.8914 796.323 36.8687 791.378 33.1958 787.658C 29.5232 783.938 24.6397 781.889 19.4458 781.889C 14.2514 781.889 9.3683 783.938 5.6954 787.658C 2.0228 791.378 -0.0001 796.323 -0.0001 801.584C -0.0001 806.845 2.0227 811.79 5.6954 815.51C 9.3685 819.229 14.2517 821.278 19.4458 821.278C 23.1961 821.278 26.3737 820.467 29.4611 818.473C 29.4611 818.473 29.8598 818.204 30.1018 818.449C 30.6969 819.052 32.2816 820.657 32.889 821.272C 33.1168 821.503 32.9111 821.794 32.9111 821.794L 32.1754 822.539C 31.8248 822.894 31.6315 823.367 31.6316 823.87C 31.6315 824.374 31.8248 824.846 32.1752 825.201L 48.1094 841.339C 48.4599 841.694 48.9266 841.89 49.4235 841.89C 49.9202 841.89 50.3868 841.694 50.7375 841.339L 57.456 834.535C 57.8067 834.179 58 833.707 58 833.203C 58 832.7 57.8069 832.228 57.4561 831.873zM 7.7982 813.38C 4.687 810.229 2.9736 806.04 2.9736 801.584C 2.9736 797.127 4.687 792.938 7.7982 789.787C 10.9093 786.636 15.0459 784.901 19.446 784.901C 23.8459 784.901 27.9822 786.636 31.0934 789.787C 34.2047 792.938 35.9181 797.127 35.9181 801.584C 35.9181 806.04 34.2047 810.229 31.0934 813.38C 27.9822 816.531 23.8459 818.267 19.446 818.267C 15.0459 818.266 10.9092 816.531 7.7982 813.38zM 49.8182 838.224C 49.5086 838.538 49.2273 838.425 48.8791 838.072C 46.6479 835.813 38.1756 827.231 35.0714 824.088C 34.8326 823.846 35.0589 823.665 35.0589 823.665L 35.8387 822.875C 36.5633 822.141 36.5633 820.947 35.8387 820.214L 32.5635 816.896C 32.5635 816.896 32.3344 816.683 32.4799 816.535C 32.6354 816.378 32.8375 816.173 32.9567 816.053C 33.1302 815.877 33.322 816.128 33.322 816.128L 36.5972 819.445C 36.9477 819.8 37.4144 819.996 37.9113 819.996C 38.4081 819.996 38.8746 819.8 39.2253 819.445L 39.9541 818.707C 39.9541 818.707 40.2155 818.457 40.5207 818.767C 43.6702 821.956 52.387 830.784 54.3701 832.793C 54.631 833.057 54.6128 833.368 54.328 833.656C 53.2008 834.799 50.9457 837.082 49.8182 838.224z"/>
</g>
</svg>