<?xml version="1.0" encoding="UTF-8" standalone="yes"?>
<!-- Created with sK1/UniConvertor (http://sk1project.org/) -->
<svg xmlns="http://www.w3.org/2000/svg" xmlns:xlink="http://www.w3.org/1999/xlink"
  width="595.276pt" height="841.89pt" viewBox="0 0 595.276 841.89"
  fill-rule="evenodd">
<g>
<path style="stroke:none; fill:none" d="M 58.6304 831.376L 46.3482 818.928C 45.9214 818.495 44.4274 817.031 43.1214 816.379C 41.4721 815.555 37.5189 814.078 35.1531 813.215L 38.6302 809.688C 40.289 808.006 40.289 805.268 38.6302 803.586L 18.4845 783.152C 17.6819 782.338 16.6136 781.889 15.4764 781.889C 14.3393 781.889 13.2708 782.338 12.4679 783.152L 2.1189 793.649C 0.4603 795.332 0.4603 798.069 2.1189 799.752L 22.1214 820.04C 22.6778 820.605 24.106 821.983 25.3445 822.595C 26.5782 823.205 28.3811 823.885 30.2898 824.605C 32.1918 825.323 34.1585 826.064 35.3305 826.665C 35.8426 826.926 36.7786 827.722 37.3879 828.34L 49.5109 840.627C 50.3135 841.441 51.3818 841.89 52.5192 841.89C 53.6564 841.89 54.7248 841.441 55.5275 840.627L 58.6309 837.479C 60.2896 835.796 60.2896 833.059 58.6304 831.376zM 36.884 807.041L 32.4896 811.498L 10.5964 789.594L 15.1398 784.986C 15.3555 784.767 15.7201 784.767 15.9358 784.986C 15.9358 784.986 17.5837 786.626 17.8993 786.978C 18.0061 787.096 17.9268 787.222 17.9268 787.222C 17.0448 788.593 16.4253 789.477 16.5441 789.598C 16.6472 789.702 17.5627 789.071 18.9147 788.176C 18.9147 788.176 19.0374 788.131 19.13 788.226C 19.8511 788.958 21.8088 790.91 22.2676 791.408C 22.3892 791.541 22.2943 791.631 22.2943 791.631C 21.1545 793.262 20.701 794.29 20.8119 794.403C 20.9524 794.546 21.8559 793.841 23.5606 792.889C 23.603 792.865 23.6883 792.852 23.7525 792.915C 24.075 793.229 24.7818 793.913 25.0253 794.204C 25.1522 794.355 25.0001 794.471 25.0001 794.471C 23.1545 796.652 22.507 798.353 22.6525 798.5C 22.777 798.627 24.4784 797.955 26.628 796.084C 26.628 796.084 26.802 796.006 26.8845 796.091C 28.583 797.861 32.2748 801.55 32.98 802.275C 33.0961 802.395 33.0109 802.536 33.0109 802.536C 31.9676 804.128 31.6069 805.11 31.7076 805.213C 31.7913 805.298 32.7851 804.944 34.3541 803.886C 34.3541 803.886 34.4888 803.812 34.5907 803.91C 34.7563 804.069 35.0713 804.387 35.2408 804.566C 35.3582 804.689 35.2853 804.829 35.2853 804.829C 34.7329 805.853 34.3158 806.425 34.4101 806.521C 34.4732 806.585 35.1086 806.171 36.1185 805.611C 36.1185 805.611 36.2043 805.544 36.2704 805.612C 36.4948 805.84 36.8836 806.233 36.8836 806.233C 36.9147 806.265 36.9399 806.3 36.9621 806.337C 37.0046 806.535 37.0046 806.74 36.9621 806.937C 36.9403 806.974 36.915 807.009 36.884 807.041zM 56.5944 835.413L 53.4908 838.561C 53.2321 838.823 52.887 838.968 52.519 838.968C 52.1511 838.968 51.806 838.823 51.5469 838.56L 39.4238 826.274C 39.2635 826.111 37.8239 824.669 36.6281 824.057C 35.3127 823.383 33.2694 822.612 31.2935 821.867C 29.5335 821.203 27.7134 820.516 26.6057 819.969C 26.0357 819.687 25.0746 818.904 24.1577 817.974L 4.1555 797.686C 3.6196 797.143 3.6196 796.258 4.1555 795.715L 8.3494 791.461C 8.3494 791.461 26.0517 809.171 31.392 814.503C 33.286 816.393 39.6289 817.891 41.8493 819C 42.5262 819.338 43.5739 820.245 44.3121 820.993L 56.5944 833.442C 57.1302 833.985 57.1302 834.87 56.5944 835.413z"/>
</g>
</svg>