<?xml version="1.0" encoding="UTF-8" standalone="yes"?>
<!-- Created with sK1/UniConvertor (http://sk1project.org/) -->
<svg xmlns="http://www.w3.org/2000/svg" xmlns:xlink="http://www.w3.org/1999/xlink"
  width="595.276pt" height="841.89pt" viewBox="0 0 595.276 841.89"
  fill-rule="evenodd">
<g>
<path style="stroke:none; fill:none" d="M 57.2645 787.527C 54.0565 783.892 49.6409 781.89 44.831 781.89C 41.0725 781.89 37.0082 784.16 34.0403 785.817C 32.8818 786.464 31.4425 787.268 30.9997 787.314C 30.558 787.269 29.1247 786.466 27.9718 785.82C 25.0096 784.162 20.9535 781.89 17.1688 781.89C 12.3592 781.89 7.9436 783.892 4.7355 787.527C 1.6817 790.987 0.0001 795.543 0.0001 800.353C 0.0001 807.243 2.4456 817.043 6.5417 826.57C 8.3641 830.808 10.3034 834.47 12.1497 837.159C 14.3355 840.342 16.2041 841.889 17.8622 841.889C 18.5897 841.889 19.923 841.575 20.6752 839.469C 21.4212 837.381 22.0925 834.983 22.8032 832.443C 24.6945 825.687 27.0482 817.278 30.8808 817.278L 31.1192 817.278C 32.8301 817.278 34.3549 818.748 35.7812 821.77C 37.1833 824.742 38.2481 828.689 39.2776 832.506C 39.9583 835.03 40.6011 837.414 41.3229 839.464C 42.0595 841.556 43.3771 841.869 44.0968 841.87L 44.098 841.87C 45.7473 841.869 47.6141 840.298 49.8048 837.067C 51.6466 834.349 53.5899 830.651 55.4245 826.372C 59.5418 816.769 61.9997 807.043 61.9997 800.353C 61.9997 795.543 60.3182 790.987 57.2645 787.527zM 53.237 825.411C 51.4875 829.492 49.5703 833.146 47.8384 835.701C 45.8294 838.665 44.9969 839.448 44.275 839.445C 43.9235 839.444 43.7356 839.126 43.5694 838.654C 42.878 836.69 42.2465 834.349 41.5779 831.87C 40.5207 827.951 39.4271 823.898 37.9333 820.73C 36.0713 816.783 33.8422 814.864 31.1194 814.864L 30.881 814.864C 28.2592 814.864 26.0826 816.768 24.2266 820.683C 22.7374 823.825 21.6046 827.872 20.5089 831.785C 19.81 834.283 19.1499 836.641 18.4327 838.648C 18.2963 839.03 18.0461 839.39 17.8622 839.476C 17.5186 839.637 16.5736 839.372 14.1078 835.781C 12.3746 833.257 10.4641 829.644 8.7286 825.606C 4.8156 816.506 2.3847 806.829 2.3847 800.353C 2.3847 792.464 7.9148 784.303 17.1691 784.303C 19.8975 784.303 23.1551 785.681 25.6221 787.267C 26.2157 787.649 27.1444 788.404 27.8813 788.964C 28.62 789.524 29.5096 790.168 30.5281 790.775C 31.0366 791.079 31.5679 791.393 32.1441 791.641C 38.323 794.296 43.7265 792.846 43.6415 792.583C 43.5614 792.335 39.7541 792.324 36.1522 791.359C 34.2364 790.845 32.6784 789.906 32.6458 789.596C 32.6189 789.341 34.0537 788.405 35.3825 787.691C 38.3528 786.095 41.687 784.303 44.8312 784.303C 54.0854 784.303 59.6155 792.464 59.6155 800.353C 59.6153 806.634 57.1712 816.235 53.237 825.411z"/>
<path style="stroke:none; fill:none" d="M 17.0134 788.702C 15.6841 788.702 14.2792 788.98 12.9499 789.507C 8.6621 791.207 6.1306 795.062 7.3065 798.101C 8.0786 800.095 10.3183 801.334 13.1522 801.334C 14.4812 801.334 15.8864 801.056 17.2155 800.529C 19.289 799.707 21.0178 798.363 22.084 796.745C 23.1551 795.119 23.4305 793.411 22.8591 791.935C 22.087 789.94 19.847 788.702 17.0134 788.702z"/>
</g>
</svg>