<?xml version="1.0" encoding="UTF-8" standalone="yes"?>
<!-- Created with sK1/UniConvertor (http://sk1project.org/) -->
<svg xmlns="http://www.w3.org/2000/svg" xmlns:xlink="http://www.w3.org/1999/xlink"
  width="595.276pt" height="841.89pt" viewBox="0 0 595.276 841.89"
  fill-rule="evenodd">
<g>
<path style="stroke:none; fill:none" d="M 18.8243 827.631C 20.2448 829.674 21.4439 830.625 22.5977 830.625C 23.0328 830.625 24.1043 830.46 24.6586 828.927C 25.1155 827.664 25.5244 826.222 25.9571 824.695C 27.0102 820.978 28.4528 815.889 30.4903 815.889L 30.635 815.889C 31.5121 815.889 32.325 816.698 33.1203 818.364C 33.9558 820.113 34.5966 822.46 35.2163 824.729C 35.6307 826.247 36.0221 827.68 36.4652 828.922C 37.009 830.448 38.0711 830.613 38.5034 830.614C 39.6527 830.614 40.8512 829.648 42.2743 827.574C 43.405 825.927 44.5951 823.69 45.7165 821.107C 48.232 815.312 49.7338 809.432 49.7338 805.377C 49.7338 802.403 48.6804 799.587 46.7672 797.445C 44.7496 795.188 41.9725 793.944 38.9476 793.944C 36.5722 793.944 34.0589 795.33 32.2231 796.343C 31.7322 796.613 30.8403 797.105 30.563 797.185C 30.2833 797.104 29.3977 796.614 28.9098 796.344C 27.078 795.332 24.5697 793.944 22.1776 793.944C 19.1526 793.944 16.3756 795.188 14.3582 797.445C 12.4448 799.587 11.3911 802.404 11.3911 805.377C 11.3911 809.551 12.8853 815.476 15.3884 821.225C 16.5035 823.787 17.6916 826.001 18.8243 827.631zM 22.1776 796.145C 23.5681 796.145 25.4084 796.786 27.0997 797.861C 27.3436 798.016 27.6987 798.288 28.0422 798.553C 28.1809 798.659 28.3176 798.764 28.4453 798.86C 28.8617 799.172 29.4243 799.579 30.0843 799.967C 30.4333 800.173 30.7514 800.356 31.1085 800.508C 32.5465 801.118 34.071 801.428 35.6393 801.428C 37.2431 801.428 38.0566 801.248 38.3615 801.176C 38.933 801.04 40.2713 800.676 40.2452 800.478C 40.222 800.304 38.7486 800.391 38.2509 800.348C 37.6736 800.298 35.9061 800.189 33.7827 799.627C 33.1452 799.458 32.2817 799.117 32.2428 798.929C 32.2132 798.787 32.8298 798.392 33.2989 798.104C 34.9421 797.096 37.1385 796.145 38.9475 796.145C 44.3213 796.145 47.5325 800.839 47.5325 805.377C 47.5325 809.09 46.0628 814.781 43.6972 820.231C 42.6456 822.653 41.4957 824.819 40.4592 826.329C 39.4572 827.789 38.8695 828.441 38.6137 828.362C 38.5653 828.347 38.5012 828.279 38.4748 828.204C 38.0616 827.045 37.7454 825.635 37.3398 824.149C 36.6944 821.787 36.0273 819.344 35.1068 817.416C 33.9087 814.908 32.4458 813.689 30.6348 813.689L 30.4902 813.689C 28.7408 813.689 27.3099 814.898 26.1156 817.387C 25.1989 819.297 24.5079 821.734 23.8369 824.102C 23.4158 825.588 23.0995 826.979 22.6701 828.167C 22.6395 828.251 22.5536 828.364 22.5001 828.381C 22.2467 828.462 21.6519 827.842 20.632 826.375C 19.5951 824.884 18.4497 822.743 17.4069 820.348C 15.0541 814.943 13.5924 809.207 13.5924 805.377C 13.5924 800.839 16.8038 796.145 22.1776 796.145z"/>
<path style="stroke:none; fill:none" d="M 60.1795 802.92C 60.1795 802.92 58.4798 803.391 57.9159 803.556C 57.6609 803.631 57.6419 803.484 57.6419 803.484C 56.3907 798.038 53.5747 793.208 49.4062 789.349C 44.2095 784.539 37.445 781.889 30.3584 781.889C 23.2601 781.889 16.4871 784.546 11.2873 789.371C 6.1157 794.168 2.9613 800.669 2.4054 807.676C 2.3394 808.507 2.9602 809.235 3.7923 809.301C 3.8329 809.304 3.8734 809.306 3.9135 809.306C 4.6939 809.306 5.3554 808.706 5.4184 807.915C 6.4421 795.016 17.3971 784.911 30.3586 784.911C 42.1198 784.911 52.2112 793.108 54.7376 804.297C 54.7376 804.297 54.7912 804.43 54.6771 804.465C 53.9174 804.699 51.6161 805.325 51.6161 805.325C 50.9391 805.515 50.8283 806.037 51.3701 806.485L 57.1481 811.265C 57.69 811.713 58.3208 811.536 58.5499 810.871L 60.9938 803.783C 61.2229 803.119 60.8565 802.73 60.1795 802.92z"/>
<path style="stroke:none; fill:none" d="M 57.4423 814.478C 56.6092 814.411 55.8823 815.033 55.8162 815.865C 54.7925 828.764 43.8373 838.868 30.8761 838.868C 19.1107 838.868 9.0193 830.679 6.4973 819.484C 6.4973 819.484 6.4625 819.329 6.5789 819.295C 7.4434 819.047 9.5091 818.473 9.5091 818.473C 10.1862 818.283 10.2968 817.761 9.755 817.312L 3.977 812.532C 3.4352 812.084 2.8046 812.262 2.5753 812.926L 0.1313 820.014C -0.098 820.678 0.2687 821.067 0.9455 820.877C 0.9455 820.877 2.5839 820.414 3.4396 820.177C 3.5437 820.148 3.5892 820.34 3.5892 820.34C 4.8389 825.79 7.6569 830.569 11.8285 834.43C 17.0251 839.241 23.7896 841.89 30.876 841.89C 37.9744 841.89 44.7473 839.233 49.947 834.409C 55.1188 829.611 58.2729 823.11 58.8289 816.104C 58.8951 815.272 58.2742 814.544 57.4423 814.478z"/>
</g>
</svg>